<svg xmlns="http://www.w3.org/2000/svg" xmlns:xlink="http://www.w3.org/1999/xlink" width="640" height="199" viewBox="0 0 640 199">
    <defs>
        <path id="a" d="M540.397 0c-54.352 0-98.482 43.882-99.143 98.263h-.016v42.817l-112.42-69.833-.06.07v-.07h-68.553v49.136h-78.32v53.907H122.47v-.034c0-32.458-25.094-59.033-56.876-61.264 20.95-2.175 37.29-19.942 37.29-41.54H19.64c0 21.598 16.338 39.365 37.289 41.54C25.147 115.223.053 141.798.053 174.256V199h122.41v-.034h59.422V199h146.873v-.112l.06.112H639.555V98.263h-.016C638.88 43.882 594.748 0 540.397 0z"/>
    </defs>
    <g fill="none" fill-rule="evenodd">
        <path fill="#222" d="M639.54 98.263C638.878 43.881 594.748 0 540.396 0c-54.35 0-98.48 43.881-99.142 98.263h-.016v42.817l-112.42-69.833-.06.07v-.07h-68.553v49.136h-78.32v53.907h-59.414v-.034c0-32.458-25.094-59.033-56.876-61.264 20.95-2.175 37.29-19.942 37.29-41.54H19.64c0 21.598 16.338 39.365 37.289 41.54C25.147 115.223.053 141.798.053 174.256V199h122.41v-.034h59.422V199H328.76v-.112l.059.112h310.737V98.263h-.015z"/>
        <mask id="b" fill="#fff">
            <use xlink:href="#a"/>
        </mask>
        <path fill="#4834D4" d="M419.98 199h198.316V0H419.98zM374.583 106.065c0 40.706-32.884 73.704-73.45 73.704s-73.45-32.998-73.45-73.704c0-40.705 32.884-73.704 73.45-73.704s73.45 32.999 73.45 73.704M0 199.177l100.412-100.76 100.413 100.76z" mask="url(#b)"/>
        <path fill="#FFD32A" d="M354.997 106.065c0 29.85-24.116 54.05-53.864 54.05-29.748 0-53.864-24.2-53.864-54.05 0-29.85 24.116-54.05 53.864-54.05 29.748 0 53.864 24.2 53.864 54.05" mask="url(#b)"/>
        <path fill="#FF3F34" d="M587.418 99.5l-68.28 68.515-68.28-68.515 68.28-68.515z" mask="url(#b)"/>
        <path fill="#34E7E4" d="M48.997 199.177l51.415-51.593 51.416 51.593z" mask="url(#b)"/>
    </g>
</svg>
