<svg xmlns="http://www.w3.org/2000/svg" width="114" height="20" viewBox="0 0 114 20">
    <g fill="#FFF" fill-rule="evenodd">
        <path d="M10.99 12.96H8.943v-1.44c-1.063 1.152-2.59 1.754-4.363 1.754C2.372 13.274 0 11.834 0 9.085c0-2.854 2.345-4.163 4.581-4.163 1.8 0 3.3.55 4.363 1.702V4.346c0-1.675-1.418-2.644-3.327-2.644-1.581 0-2.863.523-4.035 1.754L.627 2.095C2.045.68 3.736 0 5.89 0c2.809 0 5.1 1.204 5.1 4.268v8.692zm-5.645-1.1c1.418 0 2.808-.523 3.6-1.57V7.88c-.792-1.02-2.182-1.544-3.6-1.544-1.936 0-3.273 1.152-3.273 2.75 0 1.622 1.337 2.774 3.273 2.774zm15.516 1.1h-2.236L13.144.314h2.236l4.363 10.368L24.133.314h2.209L20.861 12.96zm13.58.314c-3.927 0-6.736-2.697-6.736-6.65 0-3.665 2.727-6.624 6.49-6.624 3.982 0 6.327 2.985 6.327 6.781v.498H29.887c.164 2.382 1.882 4.372 4.717 4.372 1.528 0 3.027-.576 4.09-1.623l.983 1.283c-1.337 1.256-3.11 1.963-5.236 1.963zm4.063-7.462c-.027-1.859-1.336-4.189-4.336-4.189-2.809 0-4.2 2.278-4.308 4.19h8.644zm16.252 7.148h-2.018V4.687c0-2.252-1.2-2.933-2.972-2.933-1.609 0-3.109.943-3.9 1.964v9.242h-2.045V.314h2.046v1.833C46.794 1.073 48.594 0 50.584 0c2.727 0 4.172 1.335 4.172 4.084v8.876zm9.926.314c-3.926 0-6.572-2.906-6.572-6.65S60.756 0 64.682 0c2.4 0 3.818.943 4.827 2.2l-1.364 1.177c-.872-1.152-1.99-1.623-3.354-1.623-2.781 0-4.554 2.069-4.554 4.87s1.773 4.896 4.554 4.896c1.364 0 2.482-.524 3.354-1.65l1.364 1.205c-1.009 1.257-2.427 2.2-4.827 2.2zm13.69 0c-3.927 0-6.736-2.697-6.736-6.65 0-3.665 2.727-6.624 6.49-6.624 3.981 0 6.326 2.985 6.326 6.781v.498H73.817c.164 2.382 1.882 4.372 4.718 4.372 1.527 0 3.027-.576 4.09-1.623l.982 1.283c-1.336 1.256-3.109 1.963-5.236 1.963zm4.062-7.462c-.027-1.859-1.336-4.189-4.335-4.189-2.809 0-4.2 2.278-4.309 4.19h8.644zm7.363 7.148h-2.045V.314h2.045V2.33c1.064-1.309 2.59-2.304 4.39-2.304v2.016c-.245-.026-.49-.052-.79-.052-1.282 0-3 .995-3.6 2.016v8.954zm17.234 0h-2.045v-1.44c-1.063 1.152-2.59 1.754-4.363 1.754-2.209 0-4.581-1.44-4.581-4.189 0-2.854 2.345-4.163 4.581-4.163 1.8 0 3.3.55 4.363 1.702V4.346c0-1.675-1.418-2.644-3.327-2.644-1.581 0-2.863.523-4.036 1.754l-.954-1.361C98.087.68 99.778 0 101.932 0c2.809 0 5.1 1.204 5.1 4.268v8.692zm-5.644-1.1c1.418 0 2.808-.523 3.599-1.57V7.88c-.79-1.02-2.181-1.544-3.6-1.544-1.936 0-3.272 1.152-3.272 2.75 0 1.622 1.336 2.774 3.273 2.774z"/>
        <path d="M104.644 14.277c-.21-.307-.566-.625-1.07-.953 6.89-.628 10.334-.424 10.334.614 0 1.037-3.445 2.65-10.334 4.84 0-.06.416-.568.723-1.233-1.495.237-3.407.408-3.798.484-.793.156-7.623.818-12.902 1.11-4.132.343-13.06.73-29.151.73-5.782-.16-29.231-1.132-42.064-3.336-6.898-1.185-10.008-2.423-14.621-4.471a7.61 7.61 0 0 1-1.005-.559.335.335 0 0 1 .181-.616h.11c.603 0 1.198.13 1.745.384 4.021 1.86 10.03 3.229 18.028 4.107 12.807 1.406 27.105 1.91 37.626 1.91 10.52 0 17.291-.128 29.15-.755 7.94-.42 13.623-1.172 17.048-2.256z"/>
    </g>
</svg>
